# xmcd
#
# Track frame offsets: 
#        150
#        27061
#        41191
#        70618
#        90200
#        107060
#        142292
#        162205
#        187535
#        200192
#        219857
#        242590
#        264865
#        296458
#
# Disc length: 4327 seconds
#
# Revision: 2
# Processed by: cddbd v1.5.2PL0 Copyright (c) Steve Scherf et al.
# Submitted via: ExactAudioCopy v1.0b2
#
DISCID=ba10e50e
DTITLE=Martin Schmidt - The Blues and Some Other Stuff
DYEAR=1999
DGENRE=Blues
TTITLE0=While She Was Sleeping
TTITLE1=All I Ever Wanted To Be
TTITLE2=Tonight The Blues Came Over Me
TTITLE3=Slidin' South
TTITLE4=Jimi's Lullaby
TTITLE5=Cruel World
TTITLE6=Super Babe Groove
TTITLE7=Spaghetti
TTITLE8=I've Never Been To Texas
TTITLE9=The Godfather
TTITLE10=Alligator
TTITLE11=Private Eye
TTITLE12=Rattlesnake
TTITLE13=Feelin' Blue
EXTD=
EXTT0=
EXTT1=
EXTT2=
EXTT3=
EXTT4=
EXTT5=
EXTT6=
EXTT7=
EXTT8=
EXTT9=
EXTT10=
EXTT11=
EXTT12=
EXTT13=
PLAYORDER=
